<?xml version="1.0" encoding="UTF-8"?>
<!DOCTYPE svg PUBLIC "-//W3C//DTD SVG 1.1//EN" "http://www.w3.org/Graphics/SVG/1.1/DTD/svg11.dtd">
<!-- Creator: CorelDRAW 2020 (64-Bit) -->
<svg xmlns="http://www.w3.org/2000/svg" xml:space="preserve" width="200px" height="200px" version="1.1" style="shape-rendering:geometricPrecision; text-rendering:geometricPrecision; image-rendering:optimizeQuality; fill-rule:evenodd; clip-rule:evenodd"
viewBox="0 0 2480 3507.43"
 xmlns:xlink="http://www.w3.org/1999/xlink"
 xmlns:xodm="http://www.corel.com/coreldraw/odm/2003">
 <defs>
  <style type="text/css">
   <![CDATA[
    .str0 {stroke:#373435;stroke-width:2.36;stroke-miterlimit:22.9256}
    .str1 {stroke:black;stroke-width:2.36;stroke-miterlimit:22.9256}
    .fil0 {fill:#6B809B}
    .fil1 {fill:white}
   ]]>
  </style>
 </defs>
 <g id="Capa_x0020_1">
  <metadata id="CorelCorpID_0Corel-Layer"/>
  <path class="fil0 str0" d="M328.96 1597.23c0,315.05 156.68,596.03 401.42,779.1 183.76,137.43 417.16,219.68 671.2,219.68 592.38,0 1072.62,-447.17 1072.62,-998.78 0,-551.61 -480.24,-998.78 -1072.62,-998.78 -491.57,0 -905.9,307.9 -1032.71,727.89 -25.98,86.16 -39.91,177.01 -39.91,270.89zm401.42 779.1c-244.74,-183.07 -401.42,-464.05 -401.42,-779.1 0,-93.88 13.93,-184.73 39.91,-270.89 -685.99,22.89 -309.86,632.42 361.51,1049.99z"/>
  <path class="fil1 str1" d="M1913.08 1029.5c94.18,0 170.5,175.59 170.5,392.21 0,29.75 -1.44,58.71 -4.17,86.57l-0.52 -4.33 -0.07 -0.65 -0.46 -3.62 -0.17 -1.32 -0.63 -4.67 -0.05 -0.23 -0.7 -4.86c-0.96,-6.43 -2.03,-12.75 -3.17,-18.92l-0.88 -4.62 -0.04 -0.25 -0.87 -4.3c-1.24,-6.03 -2.57,-11.93 -3.99,-17.66l-1.07 -4.28c-3.27,-12.73 -6.97,-24.66 -11.04,-35.67l-1.26 -3.37 -0.1 -0.26 -1.4 -3.57 -0.21 -0.53 -1.22 -2.96 -0.07 -0.16 -1.36 -3.23 -0.02 -0.03 -1.34 -3.05 -0.12 -0.29 -1.21 -2.66 -0.29 -0.61 -1.52 -3.19 -0.05 -0.11 -1.5 -3.01 -0.4 -0.77 -1.18 -2.26c-1.04,-1.98 -2.1,-3.92 -3.19,-5.8l-0.02 -0.04 -1.5 -2.57 -0.14 -0.22 -1.66 -2.71 -0.23 -0.38 -0.67 -1.03 -1.18 -1.81 -0.22 -0.34 -1.09 -1.63 -0.38 -0.52 -1.25 -1.78 -0.1 -0.15 -1.4 -1.91 -0.35 -0.47 -1.77 -2.27 -0.03 -0.05 -1.76 -2.14 -0.03 -0.04 -0.97 -1.13 -1.39 -1.58 -0.63 -0.7 -1.6 -1.7 -0.37 -0.4 -1.8 -1.79 -0.36 -0.36 -0.18 -0.16 -1.88 -1.73 -0.24 -0.22 -1.65 -1.42 -0.32 -0.24 -0.84 -0.69 -1.46 -1.13 -0.75 -0.55 -1.31 -0.93 -1 -0.69 -0.12 -0.08 -1.95 -1.24 -0.02 -0.01 -1.96 -1.13 -0.45 -0.25 -0.54 -0.26 -1.49 -0.75 -1 -0.46 -1.22 -0.52 -0.94 -0.39 -1.33 -0.49 -1.07 -0.37 -2.04 -0.61 -1.12 -0.28 -1.31 -0.3 -0.82 -0.16 -1.69 -0.28 -0.64 -0.08 -1.78 -0.18 -0.62 -0.05 -2.41 -0.08c-54.86,0 -99.33,116.06 -99.33,259.25l0.03 6.21 0 0.48 0.03 2.46 0.06 4.19 0.01 0.35 0.1 4.53 0.06 1.73 0.22 6.55 0.02 0.71 0.2 4.45 0.06 1.36 0.04 0.78 0.29 5.35 0.02 0.32 0.07 1.04 0.28 4.39 0.06 0.98 0.24 3.39 0.22 2.98 0.12 1.35 0.36 4.31 0.05 0.63 0.33 3.65 0.25 2.6 0.17 1.66 0.44 4.23 0.03 0.29 0.45 3.9 0.25 2.22 0.24 1.95 0.52 4.11 0 0.03 0.55 4.11 0.26 1.85 0.85 5.91 0.06 0.35 0.63 4.02 0.23 1.49 0.41 2.48 0.56 3.3 0.11 0.65 0.7 3.9 0.21 1.15 0.52 2.73 0.56 2.9 0.18 0.92 0.77 3.81 0.16 0.82 0.62 2.93 0.55 2.54 0.27 1.19 0.84 3.69 0.11 0.51 0.75 3.13 0.52 2.17 0.37 1.43 0.9 3.57 0.05 0.22 0.88 3.29 0.48 1.84 0.46 1.65 0.95 3.38 0.02 0.05 0.99 3.4 0.87 2.89 0.14 0.46 0.93 2.99 0.1 0.32 1.06 3.25 0.38 1.18 0.68 2.03 0.9 2.63 0.2 0.55 1.1 3.11 0.33 0.89 0.8 2.18 0.86 2.28 0.29 0.74 1.17 2.98 0.25 0.62 0.23 0.58 1.26 3.02 0.25 0.63 0.41 0.94 1.22 2.82 1.05 2.35 0.19 0.43 0.73 1.61 0.52 1.11 1.28 2.66 0.07 0.14 1.23 2.47 0.66 1.32 0.64 1.24 0.44 0.83 2.18 4.01 0.07 0.14 1 1.77 0.33 0.58 1.23 2.09 0.15 0.24 1.38 2.27 0.5 0.8 0.91 1.41 1.16 1.77 0.26 0.39 1.44 2.1c-7.67,2.42 -15.49,3.7 -23.44,3.7 -94.17,0 -170.5,-175.59 -170.5,-392.21 0,-216.62 76.33,-392.21 170.5,-392.21z"/>
 </g>
</svg>
